<svg width="319" height="140" viewBox="0 0 319 140" fill="none" xmlns="http://www.w3.org/2000/svg">
<g filter="url(#filter0_di_2_54)">
<rect width="311" height="132" rx="66" fill="#3572AF" shape-rendering="crispEdges"/>
<g clip-path="url(#clip0_2_54)">
<rect width="311" height="132" rx="66" fill="#3572AF"/>
<path d="M173.5 -14L174.117 -11.6078C174.685 -9.40524 176.405 -7.68526 178.608 -7.11708L181 -6.5L178.608 -5.88292C176.405 -5.31474 174.685 -3.59476 174.117 -1.39217L173.5 1L172.883 -1.39217C172.315 -3.59476 170.595 -5.31474 168.392 -5.88292L166 -6.5L168.392 -7.11708C170.595 -7.68526 172.315 -9.40524 172.883 -11.6078L173.5 -14Z" fill="white" fill-opacity="0.01"/>
<path d="M142 39L142.329 40.2758C142.632 41.4505 143.549 42.3679 144.724 42.6709L146 43L144.724 43.3291C143.549 43.6321 142.632 44.5495 142.329 45.7242L142 47L141.671 45.7242C141.368 44.5495 140.451 43.6321 139.276 43.3291L138 43L139.276 42.6709C140.451 42.3679 141.368 41.4505 141.671 40.2758L142 39Z" fill="white" fill-opacity="0.01"/>
<circle cx="165.5" cy="24.5" r="1.5" fill="white" fill-opacity="0.01"/>
<circle cx="126" cy="15" r="1" fill="white" fill-opacity="0.01"/>
<circle cx="74" cy="8" r="2" fill="white" fill-opacity="0.01"/>
<circle cx="74" cy="55" r="1" fill="white" fill-opacity="0.01"/>
<circle cx="52" cy="38" r="1" fill="white" fill-opacity="0.01"/>
<circle cx="43.5" cy="48.5" r="1.5" fill="white" fill-opacity="0.01"/>
<circle cx="72.5" cy="69.5" r="195.5" fill="white" fill-opacity="0.1"/>
<circle cx="72.5" cy="69.5" r="159.5" fill="white" fill-opacity="0.1"/>
<circle cx="72.5" cy="69.5" r="118.5" fill="white" fill-opacity="0.1"/>
<circle cx="72.5" cy="69.5" r="81.5" fill="white" fill-opacity="0.1"/>
<path fill-rule="evenodd" clip-rule="evenodd" d="M339 41.5C339 56.7556 329.89 69.8835 316.814 75.7408C316.937 76.9772 317 78.2312 317 79.5C317 100.211 300.211 117 279.5 117C273.727 117 268.258 115.695 263.373 113.365C260.148 130.797 244.866 144 226.5 144C223.002 144 219.615 143.521 216.402 142.625C209.588 149.641 200.053 154 189.5 154C178.316 154 168.275 149.104 161.404 141.338C157.105 143.055 152.413 144 147.5 144C140.889 144 134.678 142.289 129.285 139.287C122.431 148.232 111.639 154 99.5 154C92.3126 154 85.5974 151.978 79.8924 148.472C73.0791 157.88 62.0042 164 49.5 164C28.7893 164 12 147.211 12 126.5C12 105.789 28.7893 89 49.5 89C56.6874 89 63.4026 91.022 69.1076 94.5283C75.9209 85.1201 86.9958 79 99.5 79C106.111 79 112.322 80.7105 117.715 83.7131C124.569 74.7681 135.361 69 147.5 69C158.684 69 168.725 73.8963 175.596 81.6622C179.895 79.9447 184.587 79 189.5 79C192.998 79 196.385 79.479 199.598 80.3751C206.412 73.3592 215.947 69 226.5 69C232.273 69 237.742 70.3046 242.627 72.6352C244.894 60.3807 253.12 50.2162 264.186 45.2592C264.063 44.0228 264 42.7688 264 41.5C264 20.7893 280.789 4 301.5 4C322.211 4 339 20.7893 339 41.5Z" fill="#ACC9E6"/>
<path fill-rule="evenodd" clip-rule="evenodd" d="M349 69.5C349 84.7556 339.89 97.8835 326.814 103.741C326.937 104.977 327 106.231 327 107.5C327 128.211 310.211 145 289.5 145C283.727 145 278.258 143.695 273.373 141.365C270.148 158.797 254.866 172 236.5 172C233.002 172 229.615 171.521 226.402 170.625C219.588 177.641 210.053 182 199.5 182C188.316 182 178.275 177.104 171.404 169.338C167.105 171.055 162.413 172 157.5 172C150.889 172 144.678 170.289 139.285 167.287C132.431 176.232 121.639 182 109.5 182C102.313 182 95.5974 179.978 89.8924 176.472C83.0791 185.88 72.0042 192 59.5 192C38.7893 192 22 175.211 22 154.5C22 133.789 38.7893 117 59.5 117C66.6874 117 73.4026 119.022 79.1076 122.528C85.9209 113.12 96.9958 107 109.5 107C116.111 107 122.322 108.711 127.715 111.713C134.569 102.768 145.361 97 157.5 97C168.684 97 178.725 101.896 185.596 109.662C189.895 107.945 194.587 107 199.5 107C202.998 107 206.385 107.479 209.598 108.375C216.412 101.359 225.947 97 236.5 97C242.273 97 247.742 98.3046 252.627 100.635C254.894 88.3807 263.12 78.2162 274.186 73.2592C274.063 72.0228 274 70.7688 274 69.5C274 48.7893 290.789 32 311.5 32C332.211 32 349 48.7893 349 69.5Z" fill="white"/>
<g clip-path="url(#clip1_2_54)">
<g filter="url(#filter1_ii_2_54)">
<circle cx="73" cy="69" r="51" fill="#F7C024"/>
</g>
</g>
</g>
</g>
<defs>
<filter id="filter0_di_2_54" x="0" y="0" width="319" height="140" filterUnits="userSpaceOnUse" color-interpolation-filters="sRGB">
<feFlood flood-opacity="0" result="BackgroundImageFix"/>
<feColorMatrix in="SourceAlpha" type="matrix" values="0 0 0 0 0 0 0 0 0 0 0 0 0 0 0 0 0 0 127 0" result="hardAlpha"/>
<feOffset dx="4" dy="4"/>
<feGaussianBlur stdDeviation="2"/>
<feComposite in2="hardAlpha" operator="out"/>
<feColorMatrix type="matrix" values="0 0 0 0 1 0 0 0 0 1 0 0 0 0 1 0 0 0 1 0"/>
<feBlend mode="normal" in2="BackgroundImageFix" result="effect1_dropShadow_2_54"/>
<feBlend mode="normal" in="SourceGraphic" in2="effect1_dropShadow_2_54" result="shape"/>
<feColorMatrix in="SourceAlpha" type="matrix" values="0 0 0 0 0 0 0 0 0 0 0 0 0 0 0 0 0 0 127 0" result="hardAlpha"/>
<feOffset dx="4" dy="6"/>
<feGaussianBlur stdDeviation="2"/>
<feComposite in2="hardAlpha" operator="arithmetic" k2="-1" k3="1"/>
<feColorMatrix type="matrix" values="0 0 0 0 0 0 0 0 0 0 0 0 0 0 0 0 0 0 0.5 0"/>
<feBlend mode="normal" in2="shape" result="effect2_innerShadow_2_54"/>
</filter>
<filter id="filter1_ii_2_54" x="19" y="14" width="108" height="109" filterUnits="userSpaceOnUse" color-interpolation-filters="sRGB">
<feFlood flood-opacity="0" result="BackgroundImageFix"/>
<feBlend mode="normal" in="SourceGraphic" in2="BackgroundImageFix" result="shape"/>
<feColorMatrix in="SourceAlpha" type="matrix" values="0 0 0 0 0 0 0 0 0 0 0 0 0 0 0 0 0 0 127 0" result="hardAlpha"/>
<feOffset dx="3" dy="3"/>
<feGaussianBlur stdDeviation="2"/>
<feComposite in2="hardAlpha" operator="arithmetic" k2="-1" k3="1"/>
<feColorMatrix type="matrix" values="0 0 0 0 1 0 0 0 0 1 0 0 0 0 1 0 0 0 1 0"/>
<feBlend mode="normal" in2="shape" result="effect1_innerShadow_2_54"/>
<feColorMatrix in="SourceAlpha" type="matrix" values="0 0 0 0 0 0 0 0 0 0 0 0 0 0 0 0 0 0 127 0" result="hardAlpha"/>
<feOffset dx="-3" dy="-5"/>
<feGaussianBlur stdDeviation="2"/>
<feComposite in2="hardAlpha" operator="arithmetic" k2="-1" k3="1"/>
<feColorMatrix type="matrix" values="0 0 0 0 0 0 0 0 0 0 0 0 0 0 0 0 0 0 0.4 0"/>
<feBlend mode="normal" in2="effect1_innerShadow_2_54" result="effect2_innerShadow_2_54"/>
</filter>
<clipPath id="clip0_2_54">
<rect width="311" height="132" rx="66" fill="white"/>
</clipPath>
<clipPath id="clip1_2_54">
<rect x="22" y="18" width="102" height="102" rx="51" fill="white"/>
</clipPath>
</defs>
</svg>
